<svg xmlns="http://www.w3.org/2000/svg" xmlns:xlink="http://www.w3.org/1999/xlink" width="163" height="56" viewBox="0 0 163 56">
  <defs>
    <style>
      .ayt-logo-header-1 {
        clip-path: url(#clip-Custom_Size_1);
      }

      .ayt-logo-header-2 {
        fill: #f36e2d;
        stroke: rgba(0,0,0,0);
      }

      .ayt-logo-header-3 {
        fill: #818386;
      }
    </style>
    <clipPath id="clip-Custom_Size_1">
      <rect width="163" height="56"/>
    </clipPath>
  </defs>
  <g id="Custom_Size_1" data-name="Custom Size – 1" class="ayt-logo-header-1">
    <g id="Group_3" data-name="Group 3">
      <g id="Group_2" data-name="Group 2">
        <g id="Group_1" data-name="Group 1">
          <path id="Path_1" data-name="Path 1" class="ayt-logo-header-2" d="M113.6,84.693A28,28,0,1,0,66.48,105.139l1.139-7.19a22.514,22.514,0,1,1,5.349,5.083l-6.484,2.11A27.993,27.993,0,0,0,113.6,84.693M73.507,97.942v-6.08H75.67V90.283H69.493v1.579h2.163v6.08ZM69.342,80.193l2.878,4.414v3.245h1.85V84.606l2.942-4.414H74.848l-1.634,2.834-1.633-2.834ZM92.917,97.942l-.043-5.42h.032l1.936,5.42h1.3l1.991-5.42h.032l-.043,5.42h1.806V90.283H97.255L95.59,95.194h-.043L93.8,90.283H91.176v7.659Zm5.31-15.4c0,.779-.746.931-1.341.931h-.876V81.686h.984c.552,0,1.233.14,1.233.854m2.239,5.312-2-3.277a2.082,2.082,0,0,0,1.59-2.066c0-1.752-1.46-2.315-2.931-2.315H94.2v7.659h1.817v-3.04h.628l1.655,3.04Zm-4.044-10.09-3.494-4.133,3.3-3.526H93.914l-2.737,3.115h-.032V70.1H89.327v7.659h1.817V74.236h.021l2.845,3.526Zm-7.009,10.3a3.022,3.022,0,0,0,3.3-3.093V80.193h-1.85v4.619a1.445,1.445,0,1,1-2.877,0V80.193H86.147v4.771a2.99,2.99,0,0,0,3.267,3.093M86.235,75.6c0,.616-.5.832-1.06.832a2.265,2.265,0,0,1-1.655-.811l-1.212,1.233a4.042,4.042,0,0,0,2.867,1.1c1.514,0,2.932-.79,2.932-2.553,0-1.526-1.341-1.969-2.381-2.3-.724-.227-1.179-.389-1.179-.9,0-.606.6-.768,1.071-.768a1.856,1.856,0,0,1,1.363.66l1.179-1.244a3.829,3.829,0,0,0-2.51-.941c-1.427,0-2.964.7-2.964,2.4,0,1.385.984,1.882,1.958,2.2,1.006.324,1.59.508,1.59,1.093m1.147,19.357H85.456l.973-2.629Zm1.1,2.986H90.54l-3.18-7.659h-1.8l-3.213,7.659h2.012l.563-1.5H87.89ZM80.828,86.37a2.364,2.364,0,1,1,2.2-2.38,2.2,2.2,0,0,1-2.2,2.38m0,1.687A3.96,3.96,0,0,0,85,83.99a4.174,4.174,0,0,0-8.34,0,3.956,3.956,0,0,0,4.165,4.067m-1.9-13.281H77l.974-2.629Zm1.1,2.986h2.056L78.9,70.1h-1.8l-3.212,7.659h2.012l.562-1.5h2.964Zm-3.516,20.18h5.344V96.362H78.3v-1.59h3.18V93.29H78.3V91.851h3.364V90.283h-5.15Z" transform="translate(-57.599 -56.692)"/>
        </g>
      </g>
    </g>
    <g id="Group_4" data-name="Group 4" transform="translate(69.836 20.34)">
      <path id="Path_2" data-name="Path 2" class="ayt-logo-header-3" d="M344,139.715a1.661,1.661,0,0,1,.545,1.326,1.761,1.761,0,0,1-.549,1.383,2.227,2.227,0,0,1-1.539.491h-1.326v1.661H340.4v-5.335h2.058A2.284,2.284,0,0,1,344,139.715Zm-.522,2.237a1.084,1.084,0,0,0,.366-.888,1.043,1.043,0,0,0-.366-.865,1.647,1.647,0,0,0-1.052-.294l-1.3.008v2.34h1.3A1.617,1.617,0,0,0,343.478,141.951Z" transform="translate(-340.399 -139.196)"/>
      <path id="Path_3" data-name="Path 3" class="ayt-logo-header-3" d="M366.713,144.577l-1.059-1.677q-.183.016-.3.015H364v1.661h-.732v-5.335h2.088a2.354,2.354,0,0,1,1.566.469,1.649,1.649,0,0,1,.552,1.33,1.889,1.889,0,0,1-.3,1.09,1.686,1.686,0,0,1-.865.64l1.242,1.806Zm-1.357-2.325a1.616,1.616,0,0,0,1.052-.3,1.083,1.083,0,0,0,.366-.888,1.043,1.043,0,0,0-.366-.865,1.646,1.646,0,0,0-1.052-.294H364v2.347Z" transform="translate(-357.621 -139.196)"/>
      <path id="Path_4" data-name="Path 4" class="ayt-logo-header-3" d="M390.047,139.415a2.692,2.692,0,0,1,1.017.979,2.607,2.607,0,0,1,.373,1.368,2.647,2.647,0,0,1-.373,1.376,2.7,2.7,0,0,1-1.017.99,2.941,2.941,0,0,1-2.828,0,2.7,2.7,0,0,1-1.018-.99,2.647,2.647,0,0,1-.373-1.376,2.607,2.607,0,0,1,.373-1.368,2.7,2.7,0,0,1,1.014-.979,2.977,2.977,0,0,1,2.831,0Zm-2.439.572a2.082,2.082,0,0,0-.758.743,1.966,1.966,0,0,0-.282,1.032,1.986,1.986,0,0,0,.282,1.037,2.1,2.1,0,0,0,.758.751,2.009,2.009,0,0,0,1.033.278,1.971,1.971,0,0,0,1.025-.278,2.1,2.1,0,0,0,.747-.751,2.006,2.006,0,0,0,.278-1.037,1.986,1.986,0,0,0-.278-1.032,2.074,2.074,0,0,0-.747-.743,2,2,0,0,0-1.025-.274A2.034,2.034,0,0,0,387.608,139.987Z" transform="translate(-374.61 -139.057)"/>
      <path id="Path_5" data-name="Path 5" class="ayt-logo-header-3" d="M415.64,143.552a1.5,1.5,0,0,0,1.124.416,1.48,1.48,0,0,0,1.113-.416,1.587,1.587,0,0,0,.4-1.155v-3.155h.731V142.4a2.208,2.208,0,0,1-.6,1.639,2.239,2.239,0,0,1-1.65.594,2.261,2.261,0,0,1-1.661-.594,2.2,2.2,0,0,1-.6-1.639v-3.155h.732V142.4A1.577,1.577,0,0,0,415.64,143.552Z" transform="translate(-396.201 -139.196)"/>
      <path id="Path_6" data-name="Path 6" class="ayt-logo-header-3" d="M444.219,139.589a2.553,2.553,0,0,1,.987.957,2.764,2.764,0,0,1,0,2.729,2.574,2.574,0,0,1-.995.956,2.9,2.9,0,0,1-1.418.347h-2.149v-5.335h2.172A2.865,2.865,0,0,1,444.219,139.589Zm-.381,4.066a1.9,1.9,0,0,0,.717-.716,2.117,2.117,0,0,0,0-2.05,1.944,1.944,0,0,0-.728-.72,2.033,2.033,0,0,0-1.025-.263h-1.425v4.009h1.455A2,2,0,0,0,443.838,143.655Z" transform="translate(-415.887 -139.196)"/>
      <path id="Path_7" data-name="Path 7" class="ayt-logo-header-3" d="M466.966,139.242h.732v4.672h2.332v.663h-3.064Z" transform="translate(-435.711 -139.196)"/>
      <path id="Path_8" data-name="Path 8" class="ayt-logo-header-3" d="M487.061,139.242l-2,3.506v1.829h-.732v-1.8l-2.027-3.536h.747l1.646,2.721,1.616-2.721Z" transform="translate(-447.262 -139.196)"/>
      <path id="Path_9" data-name="Path 9" class="ayt-logo-header-3" d="M344.195,179.494h.724v5.335h-.739l-3.049-4.131v4.131H340.4v-5.335h.739l3.056,4.139Z" transform="translate(-340.399 -169.508)"/>
      <path id="Path_10" data-name="Path 10" class="ayt-logo-header-3" d="M367.064,179.494h3.7v.663H367.8V181.8h2.66v.663H367.8v1.7h3.064v.663h-3.8Z" transform="translate(-360.479 -169.508)"/>
      <path id="Path_11" data-name="Path 11" class="ayt-logo-header-3" d="M393.587,179.494h.762l-1.806,5.335h-.762l-1.379-4.405-1.4,4.405h-.755l-1.8-5.335h.785l1.41,4.55,1.4-4.55h.732l1.41,4.55Z" transform="translate(-375.075 -169.508)"/>
      <path id="Path_12" data-name="Path 12" class="ayt-logo-header-3" d="M432.346,179.494h4.291v.541l-3.414,4.131h3.452l-.007.663h-4.42v-.541l3.414-4.131h-3.323Z" transform="translate(-409.566 -169.508)"/>
      <path id="Path_13" data-name="Path 13" class="ayt-logo-header-3" d="M456.658,179.494h3.7v.663H457.39V181.8h2.66v.663h-2.66v1.7h3.064v.663h-3.8Z" transform="translate(-427.949 -169.508)"/>
      <path id="Path_14" data-name="Path 14" class="ayt-logo-header-3" d="M480.68,184.829l-.564-1.3H477.3l-.556,1.3h-.77l2.37-5.335h.762l2.362,5.335Zm-3.087-1.959h2.24l-1.128-2.591Z" transform="translate(-442.498 -169.508)"/>
      <path id="Path_15" data-name="Path 15" class="ayt-logo-header-3" d="M503.539,179.494h.731v4.672H506.6v.663h-3.064Z" transform="translate(-463.253 -169.508)"/>
      <path id="Path_16" data-name="Path 16" class="ayt-logo-header-3" d="M523.8,184.829l-.564-1.3h-2.812l-.556,1.3h-.77l2.37-5.335h.762l2.362,5.335Zm-3.087-1.959h2.241l-1.128-2.591Z" transform="translate(-474.966 -169.508)"/>
      <path id="Path_17" data-name="Path 17" class="ayt-logo-header-3" d="M550.449,179.494h.724v5.335h-.739l-3.049-4.131v4.131h-.732v-5.335h.739l3.056,4.139Z" transform="translate(-495.72 -169.508)"/>
      <path id="Path_18" data-name="Path 18" class="ayt-logo-header-3" d="M576.9,179.841a2.557,2.557,0,0,1,.987.957,2.765,2.765,0,0,1,0,2.728,2.575,2.575,0,0,1-.995.956,2.9,2.9,0,0,1-1.418.347h-2.149v-5.335h2.172A2.863,2.863,0,0,1,576.9,179.841Zm-.381,4.066a1.9,1.9,0,0,0,.716-.717,2.115,2.115,0,0,0,0-2.05,1.945,1.945,0,0,0-.728-.72,2.034,2.034,0,0,0-1.025-.263H574.05v4.009h1.456A2,2,0,0,0,576.515,183.907Z" transform="translate(-515.8 -169.508)"/>
    </g>
    <g id="Group_5" data-name="Group 5" transform="translate(134.488 7.617)">
      <path id="Path_19" data-name="Path 19" class="ayt-logo-header-3" d="M669.852,97.276l-1.9,1.632-2.884-1.451-.616-2.3-1.034-1.07.363,2.322-1.85-1.4.471-1.179-.635-.816-.308-1.4-.472-1.2-.544.055-.871-1.179L658.3,89.2l-.562-1.668h-.962l1.4,1.85-.236.78,2.648,3.627.363.853,1.233,2.683-.235,2.032-.653,2.411-1.56.762.019,1.125L660.8,104l2.049,1.324.218,1.088-1.378,2.756.362.436.49-.127.454.254.416.018,1.452-.889,2.615-4.565-.329-.242.055-1.015.961-.853,1.4.037.018-1.125.8-.38.653-2.83Z" transform="translate(-643.301 -87.536)"/>
      <path id="Path_20" data-name="Path 20" class="ayt-logo-header-3" d="M684.746,109.854l-.453-.689-.635-.036.707.762Z" transform="translate(-663.545 -103.796)"/>
      <path id="Path_21" data-name="Path 21" class="ayt-logo-header-3" d="M619.711,165.947l-1.5-.254-1.234,1.142-.29-1.759-.4.4-.4-.544.109-.943-1.324,1.4-.8,2.63-.78.163-1.36,3.373-2.249,2.031-2.847,1.923-.417-.073-1.723,1.614-2.285,2.339V181.6l1.923,1.07h.943l.853.852,1.923.163,2.122-1.523.417-.943.943-.145.544-2.285.889-2.412,2.267-1.469,1.523.127.471-.8-.78-.308-.472-1.034,1.38-1,2.537-3.607-.526-1.07.6-.635Z" transform="translate(-602.21 -145.109)"/>
      <path id="Path_22" data-name="Path 22" class="ayt-logo-header-3" d="M608.545,244.228l.207.622-.6,1.076h.712l.92-.92-.57-.778Z" transform="translate(-606.688 -205.534)"/>
    </g>
  </g>
</svg>
